<?xml version="1.0" encoding="UTF-8"?>
<svg version="1.1" xmlns="http://www.w3.org/2000/svg" width="145" height="145">
<path d="M0 0 C15.27943584 11.6968352 24.63298229 27.18556993 28.69140625 45.875 C31.24956523 66.8829116 27.50860484 86.76847479 14.640625 103.92578125 C13.47601135 105.32021888 12.2885633 106.69593057 11.078125 108.05078125 C10.47355469 108.7365625 9.86898437 109.42234375 9.24609375 110.12890625 C-3.41130044 123.63700107 -21.86532452 131.16183728 -40.1796875 132.17578125 C-60.99240759 132.71115669 -79.79808423 125.20826741 -94.921875 111.05078125 C-105.05563616 100.70350487 -112.11609443 87.27318622 -114.921875 73.05078125 C-115.14875 71.95765625 -115.375625 70.86453125 -115.609375 69.73828125 C-117.31748917 49.58253403 -113.40979309 30.31618346 -100.921875 14.05078125 C-75.18921885 -16.1563254 -33.13248208 -22.10308631 0 0 Z " fill="#333343" transform="translate(115.921875,12.94921875)"/>
<path d="M0 0 C0.99 0.33 1.98 0.66 3 1 C2.65066406 1.90363281 2.30132812 2.80726562 1.94140625 3.73828125 C1.48636719 4.91777344 1.03132813 6.09726563 0.5625 7.3125 C0.11003906 8.48425781 -0.34242187 9.65601562 -0.80859375 10.86328125 C-1.57984755 12.89382815 -2.31312642 14.93937926 -3 17 C-2.43079834 16.84329834 -1.86159668 16.68659668 -1.27514648 16.52514648 C1.33383989 15.81533898 3.9478984 15.12632236 6.5625 14.4375 C7.45775391 14.19064453 8.35300781 13.94378906 9.27539062 13.68945312 C14.49818439 12.33114412 18.70407845 11.38419099 24 13 C26.96190609 14.77440215 29.62500465 16.83804823 32.3125 19 C33.72449259 20.10514839 35.1372181 21.20936118 36.55078125 22.3125 C37.47370972 23.04919922 37.47370972 23.04919922 38.4152832 23.80078125 C40.00092557 25.07676034 40.00092557 25.07676034 42 26 C42 20.39 42 14.78 42 9 C43.32 9 44.64 9 46 9 C46.02894547 12.45831586 46.04678 15.91660072 46.0625 19.375 C46.07087891 20.35984375 46.07925781 21.3446875 46.08789062 22.359375 C46.09111328 23.30039063 46.09433594 24.24140625 46.09765625 25.2109375 C46.10289307 26.08024902 46.10812988 26.94956055 46.11352539 27.84521484 C46 30 46 30 45 32 C41.33652762 30.69989012 38.68647877 29.15605098 35.70703125 26.671875 C34.91103516 26.03765625 34.11503906 25.4034375 33.29492188 24.75 C31.64407445 23.41997029 30.0083644 22.07092337 28.38867188 20.703125 C23.88879989 17.08138993 23.88879989 17.08138993 18.39501953 15.96826172 C15.83930792 16.47052636 13.46386102 17.16088351 11 18 C9.80890625 18.28101562 8.6178125 18.56203125 7.390625 18.8515625 C5.28584318 19.36990429 3.18168003 19.89076433 1.078125 20.4140625 C-2.02503477 21.0047655 -4.84945991 21.1037603 -8 21 C-7.42460686 15.79714932 -5.70581107 11.76043964 -3.4375 7.125 C-3.10814453 6.43664062 -2.77878906 5.74828125 -2.43945312 5.0390625 C-1.63304639 3.3561267 -0.81745506 1.67759707 0 0 Z " fill="#265DAF" transform="translate(45,90)"/>
<path d="M0 0 C1.875 1.0625 1.875 1.0625 3 3 C2.66666667 9.33333333 2.66666667 9.33333333 0 12 C-3.5 11.8125 -3.5 11.8125 -7 11 C-9 8 -9 8 -8.8125 4.9375 C-7.47741613 0.1106583 -4.61266905 -0.57658363 0 0 Z " fill="#E7E7E9" transform="translate(94,81)"/>
<path d="M0 0 C2.9375 0.75 2.9375 0.75 4.9375 2.75 C4.8125 6.25 4.8125 6.25 3.9375 9.75 C1.75955915 11.55243381 0.67018399 11.81660764 -2.125 11.5625 C-4.4925832 10.56964253 -5.64362996 9.91564375 -7.0625 7.75 C-6.9375 4.6875 -6.9375 4.6875 -6.0625 1.75 C-3.0625 -0.25 -3.0625 -0.25 0 0 Z " fill="#EDEDEF" transform="translate(82.0625,31.25)"/>
<path d="M0 0 C1.8125 1.125 1.8125 1.125 3 3 C3.39769128 6.18153026 3.55198782 8.12844028 1.8125 10.875 C-0.65507108 12.40659584 -2.14519831 12.42822025 -5 12 C-6.8125 10.9375 -6.8125 10.9375 -8 9 C-8.375 5.4375 -8.375 5.4375 -8 2 C-4.76746204 -0.15502531 -3.74849077 -0.46856135 0 0 Z " fill="#E3E3E6" transform="translate(63,35)"/>
<path d="M0 0 C1.875 1.1875 1.875 1.1875 3 3 C3.42822025 5.85480169 3.40659584 7.34492892 1.875 9.8125 C-0.87155972 11.55198782 -2.81846974 11.39769128 -6 11 C-7.9375 9.9375 -7.9375 9.9375 -9 8 C-8.8125 4.375 -8.8125 4.375 -8 1 C-5.20129973 -0.39935013 -3.09501208 -0.25265405 0 0 Z " fill="#E5E5E7" transform="translate(106,64)"/>
<path d="M0 0 C2 2 2 2 2.25 5.5 C2 9 2 9 0 11 C-3.5 11.25 -3.5 11.25 -7 11 C-9 9 -9 9 -9.3125 5.5 C-9.209375 4.345 -9.10625 3.19 -9 2 C-5.54754176 -0.30163882 -4.05261287 -0.34490322 0 0 Z " fill="#E8E8E9" transform="translate(52,53)"/>
<path d="M0 0 C2 2 2 2 2.25 5.5 C2 9 2 9 0 11 C-3.5 11.3125 -3.5 11.3125 -7 11 C-9.15502531 7.76746204 -9.46856135 6.74849077 -9 3 C-6.73157826 -0.65467947 -4.03373275 -0.4291205 0 0 Z " fill="#F3F3F4" transform="translate(102,43)"/>
<path d="M0 0 C3.5625 0.1875 3.5625 0.1875 5.5625 2.1875 C5.875 5.6875 5.875 5.6875 5.5625 9.1875 C2.32996204 11.34252531 1.31099077 11.65606135 -2.4375 11.1875 C-4.3125 10.125 -4.3125 10.125 -5.4375 8.1875 C-4.89124449 0.26679515 -4.89124449 0.26679515 0 0 Z " fill="#F2F2F3" transform="translate(52.4375,73.8125)"/>
<path d="M0 0 C1.67542976 0.28604898 3.34385343 0.61781233 5 1 C4.67 2.65 4.34 4.3 4 6 C2.68 6 1.36 6 0 6 C-0.38218767 4.34385343 -0.71395102 2.67542976 -1 1 C-0.67 0.67 -0.34 0.34 0 0 Z " fill="#40404E" transform="translate(101,66)"/>
<path d="M0 0 C1.65 0.33 3.3 0.66 5 1 C4.67 2.65 4.34 4.3 4 6 C2.35 5.67 0.7 5.34 -1 5 C-0.67 3.35 -0.34 1.7 0 0 Z " fill="#3D3D4C" transform="translate(89,84)"/>
<path d="M0 0 C2.0625 0.4375 2.0625 0.4375 4 1 C4.5625 2.9375 4.5625 2.9375 5 5 C4 6 4 6 1.4375 6.0625 C0.2309375 6.0315625 0.2309375 6.0315625 -1 6 C-1.042721 4.33388095 -1.04063832 2.66617115 -1 1 C-0.67 0.67 -0.34 0.34 0 0 Z " fill="#3D3D4C" transform="translate(51,76)"/>
<path d="M0 0 C1.65 0 3.3 0 5 0 C5.625 1.875 5.625 1.875 6 4 C5.34 4.66 4.68 5.32 4 6 C1.875 5.625 1.875 5.625 0 5 C0 3.35 0 1.7 0 0 Z " fill="#464655" transform="translate(46,56)"/>
<path d="M0 0 C1.65 0.33 3.3 0.66 5 1 C4.67 2.65 4.34 4.3 4 6 C2.35 5.67 0.7 5.34 -1 5 C-0.67 3.35 -0.34 1.7 0 0 Z " fill="#424250" transform="translate(97,46)"/>
<path d="M0 0 C1.65 0.33 3.3 0.66 5 1 C4.67 2.65 4.34 4.3 4 6 C2.35 5.67 0.7 5.34 -1 5 C-0.67 3.35 -0.34 1.7 0 0 Z " fill="#3E3E4D" transform="translate(58,38)"/>
<path d="M0 0 C1.65 0.33 3.3 0.66 5 1 C4.67 2.65 4.34 4.3 4 6 C2.35 5.67 0.7 5.34 -1 5 C-0.67 3.35 -0.34 1.7 0 0 Z " fill="#3D3D4C" transform="translate(79,34)"/>
<path d="M0 0 C2 2 2 2 2 5 C1.34 5 0.68 5 0 5 C-0.33 4.34 -0.66 3.68 -1 3 C-3.31 3.33 -5.62 3.66 -8 4 C-8 3.01 -8 2.02 -8 1 C-5.23749964 -0.38125018 -3.05268901 -0.19079306 0 0 Z " fill="#F8F8F9" transform="translate(106,64)"/>
<path d="M0 0 C0.33 0.66 0.66 1.32 1 2 C1.66 2 2.32 2 3 2 C3.33 2.66 3.66 3.32 4 4 C5.65948148 5.01187895 7.32580562 6.0126546 9 7 C9 7.33 9 7.66 9 8 C5.625 7.6875 5.625 7.6875 2 7 C0 4 0 4 0 0 Z " fill="#DADADD" transform="translate(85,85)"/>
<path d="M0 0 C0.66 0 1.32 0 2 0 C2 1.32 2 2.64 2 4 C3.32 4 4.64 4 6 4 C6 4.99 6 5.98 6 7 C1.25 6.25 1.25 6.25 -1 4 C-0.625 1.875 -0.625 1.875 0 0 Z " fill="#EAEAEC" transform="translate(48,78)"/>
<path d="M0 0 C0.66 0.33 1.32 0.66 2 1 C0.515 4.465 0.515 4.465 -1 8 C-1.66 8 -2.32 8 -3 8 C-3.1875 5.125 -3.1875 5.125 -3 2 C-2.01 1.34 -1.02 0.68 0 0 Z " fill="#F1F1F2" transform="translate(46,53)"/>
<path d="M0 0 C1.32 0.66 2.64 1.32 4 2 C3.01 2.66 2.02 3.32 1 4 C0.01 5.485 0.01 5.485 -1 7 C-1.66 5.68 -2.32 4.36 -3 3 C-2.01 2.01 -1.02 1.02 0 0 Z " fill="#DADADD" transform="translate(96,43)"/>
<path d="M0 0 C1.65 0 3.3 0 5 0 C3.71937515 1.7074998 2.38232443 3.37373596 1 5 C0.34 5 -0.32 5 -1 5 C-0.67 3.35 -0.34 1.7 0 0 Z " fill="#F4F4F5" transform="translate(87,82)"/>
<path d="M0 0 C1.98 0.495 1.98 0.495 4 1 C3.67 1.99 3.34 2.98 3 4 C1.68 4 0.36 4 -1 4 C-0.67 2.68 -0.34 1.36 0 0 Z " fill="#DFDFE1" transform="translate(72,74)"/>
<path d="M0 0 C2.475 0.495 2.475 0.495 5 1 C4.67 1.99 4.34 2.98 4 4 C2.68 3.67 1.36 3.34 0 3 C0 2.01 0 1.02 0 0 Z " fill="#DEDEE1" transform="translate(61,60)"/>
<path d="M0 0 C0.268125 0.598125 0.53625 1.19625 0.8125 1.8125 C1.98493467 3.97224808 3.19369282 5.35790256 5 7 C3.35 6.67 1.7 6.34 0 6 C-0.38218767 4.34385343 -0.71395102 2.67542976 -1 1 C-0.67 0.67 -0.34 0.34 0 0 Z " fill="#FDFDFD" transform="translate(56,39)"/>
<path d="M0 0 C0.598125 0.350625 1.19625 0.70125 1.8125 1.0625 C1.8125 1.7225 1.8125 2.3825 1.8125 3.0625 C1.1525 3.0625 0.4925 3.0625 -0.1875 3.0625 C-0.5175 3.7225 -0.8475 4.3825 -1.1875 5.0625 C-1.5175 4.0725 -1.8475 3.0825 -2.1875 2.0625 C-3.1775 1.4025 -4.1675 0.7425 -5.1875 0.0625 C-2.1875 -0.9375 -2.1875 -0.9375 0 0 Z " fill="#DBDBDE" transform="translate(85.1875,32.9375)"/>
</svg>
